<?xml version="1.0" encoding="iso-8859-1"?>
<!-- Generator: Adobe Illustrator 19.0.0, SVG Export Plug-In . SVG Version: 6.00 Build 0)  -->
<svg version="1.1" id="Capa_1" xmlns="http://www.w3.org/2000/svg" xmlns:xlink="http://www.w3.org/1999/xlink" x="0px" y="0px"
	 viewBox="0 0 512 512" style="enable-background:new 0 0 512 512;" xml:space="preserve">
<path style="fill:#6F6571;" d="M376,356h96c8.837,0,16-7.163,16-16V156c0-8.837-7.163-16-16-16h-96c-8.837,0-16,7.163-16,16v184
	C360,348.837,367.163,356,376,356z"/>
<path style="fill:#5D5360;" d="M392,340V156c0-8.837,7.164-16,16-16h-32c-8.836,0-16,7.163-16,16v184c0,8.836,7.164,16,16,16h32
	C399.164,356,392,348.836,392,340z"/>
<polygon style="fill:#6F6571;" points="200,308 136,308 128,364 208,364 "/>
<polygon style="fill:#5D5360;" points="203.429,332 200,308 136,308 132.571,332 "/>
<path style="fill:#867E88;" d="M320,316H16c-4.418,0-8-3.582-8-8V148c0-4.418,3.582-8,8-8h304c4.418,0,8,3.582,8,8v160
	C328,312.418,324.418,316,320,316z"/>
<path style="fill:#BEE86E;" d="M308,284H28c-2.209,0-4-1.791-4-4V160c0-2.209,1.791-4,4-4h280c2.209,0,4,1.791,4,4v120
	C312,282.209,310.209,284,308,284z"/>
<g>
	<path style="fill:#867E88;" d="M456,328h-64c-6.625,0-12-5.371-12-12s5.375-12,12-12h64c6.625,0,12,5.371,12,12
		S462.625,328,456,328z"/>
	<path style="fill:#867E88;" d="M456,296h-64c-6.625,0-12-5.371-12-12s5.375-12,12-12h64c6.625,0,12,5.371,12,12
		S462.625,296,456,296z"/>
	<path style="fill:#867E88;" d="M456,264h-64c-6.625,0-12-5.371-12-12s5.375-12,12-12h64c6.625,0,12,5.371,12,12
		S462.625,264,456,264z"/>
</g>
<path style="fill:#D4F582;" d="M400,196h-8c-4.422,0-8-3.582-8-8s3.578-8,8-8h8c4.422,0,8,3.582,8,8S404.422,196,400,196z"/>
<path style="fill:#867E88;" d="M456,196h-24c-4.422,0-8-3.582-8-8s3.578-8,8-8h24c4.422,0,8,3.582,8,8S460.422,196,456,196z"/>
<path style="fill:#C9C6CA;" d="M504,372H8c-4.422,0-8-3.582-8-8s3.578-8,8-8h496c4.422,0,8,3.582,8,8S508.422,372,504,372z"/>
<path style="fill:#D4F582;" d="M64,220c0,24.163,8.314,46.343,22.138,64h163.724C263.686,266.343,272,244.163,272,220
	s-8.314-46.343-22.138-64H86.138C72.314,173.657,64,195.837,64,220z"/>
<g>
</g>
<g>
</g>
<g>
</g>
<g>
</g>
<g>
</g>
<g>
</g>
<g>
</g>
<g>
</g>
<g>
</g>
<g>
</g>
<g>
</g>
<g>
</g>
<g>
</g>
<g>
</g>
<g>
</g>
</svg>
