<?xml version="1.0" encoding="iso-8859-1"?>
<!-- Generator: Adobe Illustrator 19.0.0, SVG Export Plug-In . SVG Version: 6.00 Build 0)  -->
<svg version="1.1" id="Capa_1" xmlns="http://www.w3.org/2000/svg" xmlns:xlink="http://www.w3.org/1999/xlink" x="0px" y="0px"
	 viewBox="0 0 512 512" style="enable-background:new 0 0 512 512;" xml:space="preserve">
<circle style="fill:#0088FF;" cx="256" cy="256" r="256"/>
<path style="fill:#004EB1;" d="M512,256c0-11.61-0.788-23.035-2.285-34.235L360.36,71.891c-5.319-5.184-12.571-8.391-20.54-8.391
	H172.18c-16.217,0-29.486,13.269-29.486,29.487v326.027c0,7.391,2.759,14.166,7.296,19.354l71.641,71.329
	C232.873,511.205,244.343,512,256,512C397.385,512,512,397.385,512,256z"/>
<path style="fill:#FFFFFF;" d="M339.82,448.5H172.18c-16.218,0-29.487-13.269-29.487-29.487V92.987
	c0-16.218,13.269-29.487,29.487-29.487h167.64c16.218,0,29.487,13.269,29.487,29.487v326.027
	C369.307,435.231,356.038,448.5,339.82,448.5z"/>
<path style="fill:#FFF5CB;" d="M369.31,92.99v326.02c0,16.22-13.27,29.49-29.49,29.49H256v-385h83.82
	C356.04,63.5,369.31,76.77,369.31,92.99z"/>
<rect x="165.19" y="88.25" style="fill:#00E8F2;" width="181.62" height="289.25"/>
<rect x="256" y="88.25" style="fill:#00B7BE;" width="90.81" height="289.25"/>
<path style="fill:#FEC000;" d="M277.458,428.25h-42.917c-8.273,0-15.042-6.769-15.042-15.042v-4.25
	c0-8.273,6.769-15.042,15.042-15.042h42.917c8.273,0,15.042,6.769,15.042,15.042v4.25C292.5,421.481,285.731,428.25,277.458,428.25z
	"/>
<path style="fill:#FF9A00;" d="M292.5,408.96v4.25c0,8.27-6.77,15.04-15.04,15.04H256v-34.33h21.46
	C285.73,393.92,292.5,400.69,292.5,408.96z"/>
<rect x="204.14" y="202.65" style="fill:#FEC000;" width="103.73" height="87.33"/>
<rect x="256" y="202.65" style="fill:#FF9A00;" width="51.862" height="87.33"/>
<polygon style="fill:#E02424;" points="192.425,204.675 256,153.479 319.575,204.675 "/>
<polygon style="fill:#990011;" points="319.575,204.676 255.999,204.676 255.999,153.479 "/>
<rect x="236.17" y="246.32" style="fill:#0088FF;" width="39.667" height="43.664"/>
<rect x="256" y="246.32" style="fill:#004EB1;" width="19.833" height="43.664"/>
<rect x="182" y="286.6" style="fill:#FFFFFF;" width="148" height="17.667"/>
<rect x="256" y="286.6" style="fill:#FFE670;" width="74" height="17.667"/>
<g>
</g>
<g>
</g>
<g>
</g>
<g>
</g>
<g>
</g>
<g>
</g>
<g>
</g>
<g>
</g>
<g>
</g>
<g>
</g>
<g>
</g>
<g>
</g>
<g>
</g>
<g>
</g>
<g>
</g>
</svg>
